<svg width="129" height="70" viewBox="0 0 129 70" fill="none" xmlns="http://www.w3.org/2000/svg">
<path d="M48.2 50.2C46.4214 52.3362 44.2269 54.0884 41.75 55.35C39.368 56.3742 36.792 56.8689 34.2 56.8H21.2L30.5 46.3C36.1 40.0333 39.8167 35.1167 41.65 31.55C43.4667 28.0431 44.41 24.1495 44.4 20.2C44.4 14.3333 42.4667 9.56668 38.6 5.90001C34.7333 2.23335 29.6333 0.400014 23.3 0.400014C17.6446 0.387214 12.0406 1.47404 6.8 3.60001L3.9 18.9L4.1 19C7.97333 13.6 13.1067 10.9 19.5 10.9C22.4342 10.7842 25.2999 11.8051 27.5 13.75C29.5667 15.65 30.5667 18.4333 30.5 22.1C30.3469 25.1897 29.4368 28.1945 27.85 30.85C25.0772 35.3961 21.9862 39.7403 18.6 43.85L0 67.6V67.9H30.3C35.2739 67.8239 40.2483 68.0242 45.2 68.5L48.4 50.3L48.2 50.2Z" fill="url(#paint0_linear_233_686)"/>
<path d="M96.6996 53.35C94.1596 57.7233 90.6263 59.9067 86.0996 59.9C76.3596 59.9 71.493 51.3333 71.4996 34.2C71.4996 26.4 72.733 20.3833 75.1996 16.15C77.6663 11.9167 81.133 9.8 85.5996 9.8C92.7663 9.8 97.3463 14.1067 99.3396 22.72H113.92C113.055 17.5167 110.842 12.6309 107.5 8.55C102.566 2.85 95.4996 0 86.2996 0C77.0996 0 69.933 3.05 64.7996 9.15C59.6596 15.25 57.093 23.8667 57.0996 35C57.0996 46 59.533 54.55 64.3996 60.65C69.2663 66.75 76.2663 69.8 85.3996 69.8C94.6596 69.8 101.893 66.6667 107.1 60.4C110.029 56.766 112.125 52.533 113.24 48H98.9096C98.3915 49.866 97.6494 51.6624 96.6996 53.35Z" fill="url(#paint1_linear_233_686)"/>
<path d="M83.5195 43V42.9531C83.9102 42.6172 84.3281 42.1016 84.7734 41.4062C85.2266 40.7109 85.5938 39.9297 85.875 39.0625L88.9922 29.582C89.2188 28.8477 89.2891 28.2031 89.2031 27.6484C89.125 27.0938 88.918 26.668 88.582 26.3711V26.3242H95.1328V26.3711C94.8125 26.6445 94.6211 27.0508 94.5586 27.5898C94.5039 28.1289 94.5938 28.7617 94.8281 29.4883L97.9922 39.0625C98.2734 39.9297 98.6367 40.7109 99.082 41.4062C99.5352 42.1016 99.957 42.6172 100.348 42.9531V43H94.8047V42.9531C94.9922 42.7734 95.0898 42.4531 95.0977 41.9922C95.1133 41.5312 95 40.8672 94.7578 40L93.0938 34.6211C92.4688 32.5742 92.0547 30.918 91.8516 29.6523H91.7578C91.6953 30.168 91.5859 30.75 91.4297 31.3984C91.2812 32.0469 91.1523 32.5469 91.043 32.8984C90.9414 33.2422 90.7695 33.8164 90.5273 34.6211L88.875 40C88.6328 40.8672 88.5156 41.5352 88.5234 42.0039C88.5391 42.4727 88.6406 42.7891 88.8281 42.9531V43H83.5195ZM113.355 38.3945L113.402 38.418L112.734 43.1875C111.945 43.0625 110.969 43 109.805 43H101.332V42.9531C101.676 42.7188 101.977 42.2969 102.234 41.6875C102.492 41.0703 102.621 40.3086 102.621 39.4023V29.9219C102.621 29 102.492 28.2383 102.234 27.6367C101.984 27.0273 101.684 26.6055 101.332 26.3711V26.3242H109.945C111.039 26.3242 111.887 26.2578 112.488 26.125L112.898 30.4258L112.852 30.4492C112.273 29.2617 111.016 28.668 109.078 28.668H105.914V32.8984H107.742C109.336 32.8984 110.582 32.8398 111.48 32.7227L110.789 36.7656H110.742C110.359 35.75 109.484 35.2422 108.117 35.2422H105.914V40.6445H108.527C109.582 40.6445 110.52 40.4531 111.34 40.0703C112.168 39.6875 112.84 39.1289 113.355 38.3945ZM127.629 26.125L128.027 30.5195L127.98 30.543C127.684 30.0273 127.262 29.6055 126.715 29.2773C126.168 28.9414 125.551 28.7734 124.863 28.7734H123.07V39.2031C123.07 40.1875 123.207 41.0039 123.48 41.6523C123.754 42.3008 124.102 42.7344 124.523 42.9531V43H118.312V42.9531C118.703 42.7188 119.043 42.2734 119.332 41.6172C119.629 40.9531 119.777 40.1484 119.777 39.2031V28.7734H117.949C117.262 28.7734 116.645 28.9414 116.098 29.2773C115.551 29.6055 115.129 30.0273 114.832 30.543L114.785 30.5195L115.195 26.125C116.234 26.2578 117.328 26.3242 118.477 26.3242H124.336C125.492 26.3242 126.59 26.2578 127.629 26.125Z" fill="url(#paint2_linear_233_686)"/>
<defs>
<linearGradient id="paint0_linear_233_686" x1="4.72782" y1="-21.013" x2="81.3865" y2="64.811" gradientUnits="userSpaceOnUse">
<stop stop-color="#E6E9F0"/>
<stop offset="0.510417" stop-color="#FCFDFF"/>
<stop offset="1" stop-color="#E6E9F0"/>
</linearGradient>
<linearGradient id="paint1_linear_233_686" x1="62.6499" y1="-21.9474" x2="139.34" y2="76.3941" gradientUnits="userSpaceOnUse">
<stop stop-color="#E6E9F0"/>
<stop offset="0.510417" stop-color="#FCFDFF"/>
<stop offset="1" stop-color="#E6E9F0"/>
</linearGradient>
<linearGradient id="paint2_linear_233_686" x1="88.3957" y1="10.567" x2="112.793" y2="68.2137" gradientUnits="userSpaceOnUse">
<stop stop-color="#E6E9F0"/>
<stop offset="0.510417" stop-color="#FCFDFF"/>
<stop offset="1" stop-color="#E6E9F0"/>
</linearGradient>
</defs>
</svg>
