<svg width="179" height="86" viewBox="0 0 179 86" fill="none" xmlns="http://www.w3.org/2000/svg">
<path d="M166.284 16.8808C165.547 15.8254 164.335 15.1922 163.071 15.1922H138.583V4.74456C138.583 2.58116 136.793 0.787109 134.634 0.787109H45.897C43.7378 0.787109 41.9473 2.58116 41.9473 4.74456V68.697C41.9473 70.8604 43.7378 72.6545 45.897 72.6545H57.0615C59.1153 79.8307 65.7508 85.16 73.5449 85.16C81.339 85.16 87.9745 79.8834 90.0283 72.6545H133.791C135.845 79.8307 142.48 85.16 150.274 85.16C158.069 85.16 164.704 79.8834 166.758 72.6545H174.921C177.08 72.6545 178.87 70.8604 178.87 68.697V36.1404C178.87 35.2961 178.607 34.5046 178.133 33.8714L166.284 16.8808ZM171.024 37.3012H153.329V23.1599H161.07L171.024 37.3012ZM49.8467 8.75479H130.684V64.7923H90.397C88.8697 56.8246 81.9183 50.8093 73.5449 50.8093C65.1715 50.8093 58.1674 56.8246 56.6928 64.7923H49.8467V8.75479ZM73.5449 77.2451C68.4366 77.2451 64.2763 73.0766 64.2763 67.9583C64.2763 62.84 68.4366 58.6715 73.5449 58.6715C78.6532 58.6715 82.8135 62.84 82.8135 67.9583C82.8135 73.0766 78.6532 77.2451 73.5449 77.2451ZM150.327 77.2451C145.219 77.2451 141.058 73.0766 141.058 67.9583C141.058 62.84 145.219 58.6715 150.327 58.6715C155.435 58.6715 159.596 62.84 159.596 67.9583C159.596 73.0766 155.435 77.2451 150.327 77.2451ZM167.179 64.7923C165.652 56.8246 158.7 50.8093 150.327 50.8093C145.798 50.8093 141.638 52.6034 138.583 55.5055V23.1599H145.377V41.2587C145.377 43.4221 147.167 45.2161 149.327 45.2161H171.076V64.7923H167.179Z" fill="url(#paint0_linear_280_2)"/>
<path d="M3.97705 8.75524H32.1516C34.3108 8.75524 36.1013 6.96119 36.1013 4.79779C36.1013 2.63438 34.3108 0.840332 32.1516 0.840332H3.97705C1.81788 0.840332 0.0273438 2.63438 0.0273438 4.79779C0.0273438 6.96119 1.81788 8.75524 3.97705 8.75524Z" fill="url(#paint1_linear_280_2)"/>
<path d="M32.1526 15.2451H10.4556C8.29639 15.2451 6.50586 17.0392 6.50586 19.2026C6.50586 21.366 8.29639 23.16 10.4556 23.16H32.1526C34.3118 23.16 36.1023 21.366 36.1023 19.2026C36.1023 17.0392 34.3644 15.2451 32.1526 15.2451Z" fill="url(#paint2_linear_280_2)"/>
<path d="M32.1518 29.6499H18.4595C16.3003 29.6499 14.5098 31.4439 14.5098 33.6074C14.5098 35.7708 16.3003 37.5648 18.4595 37.5648H32.1518C34.3109 37.5648 36.1015 35.7708 36.1015 33.6074C36.1015 31.4439 34.3636 29.6499 32.1518 29.6499Z" fill="url(#paint3_linear_280_2)"/>
<path d="M32.1522 44.0552H27.4126C25.2534 44.0552 23.4629 45.8492 23.4629 48.0126C23.4629 50.176 25.2534 51.9701 27.4126 51.9701H32.1522C34.3114 51.9701 36.1019 50.176 36.1019 48.0126C36.1019 45.8492 34.3641 44.0552 32.1522 44.0552Z" fill="url(#paint4_linear_280_2)"/>
<defs>
<linearGradient id="paint0_linear_280_2" x1="41.9473" y1="42.9736" x2="178.87" y2="42.9736" gradientUnits="userSpaceOnUse">
<stop stop-color="#E0C3FC"/>
<stop offset="1" stop-color="#8EC5FC"/>
</linearGradient>
<linearGradient id="paint1_linear_280_2" x1="0.0273438" y1="4.79779" x2="36.1013" y2="4.79779" gradientUnits="userSpaceOnUse">
<stop stop-color="#E0C3FC"/>
<stop offset="1" stop-color="#8EC5FC"/>
</linearGradient>
<linearGradient id="paint2_linear_280_2" x1="6.50586" y1="19.2026" x2="36.1023" y2="19.2026" gradientUnits="userSpaceOnUse">
<stop stop-color="#E0C3FC"/>
<stop offset="1" stop-color="#8EC5FC"/>
</linearGradient>
<linearGradient id="paint3_linear_280_2" x1="14.5098" y1="33.6074" x2="36.1015" y2="33.6074" gradientUnits="userSpaceOnUse">
<stop stop-color="#E0C3FC"/>
<stop offset="1" stop-color="#8EC5FC"/>
</linearGradient>
<linearGradient id="paint4_linear_280_2" x1="23.4629" y1="48.0126" x2="36.1019" y2="48.0126" gradientUnits="userSpaceOnUse">
<stop stop-color="#E0C3FC"/>
<stop offset="1" stop-color="#8EC5FC"/>
</linearGradient>
</defs>
</svg>
