<svg width="92" height="120" viewBox="0 0 92 120" fill="none" xmlns="http://www.w3.org/2000/svg">
<path d="M85.788 35.404C90.6824 27.1352 84.5023 16.7837 75.14 16.9156C75.2623 7.4713 64.9059 1.30033 56.6688 6.24553C54.5124 2.43319 50.4677 0 45.9917 0C41.5312 0 37.4943 2.42833 35.3359 6.2319C27.0805 1.30436 16.7426 7.48437 16.8646 16.9156C7.47466 16.7988 1.33838 27.1036 6.2322 35.3991C2.42838 37.5452 0 41.5911 0 46.0838C0 50.5803 2.42062 54.6302 6.21666 56.7821C1.43837 64.8266 7.11477 75.2686 16.8685 75.2686C16.8433 78.005 17.7835 80.7002 19.49 82.9042C19.4794 82.9017 19.4682 82.8999 19.4577 82.8975C12.8728 92.6845 5.75114 102.252 1.79239 112.976C1.71273 113.136 1.87192 113.275 2.01119 113.175C6.52702 110.564 11.4406 108.093 16.5731 105.701C16.6726 105.661 16.7919 105.701 16.7919 105.82C17.6871 110.405 18.7613 115.069 20.2533 119.893C20.2932 120.032 20.512 120.032 20.5717 119.913C24.5879 109.071 31.811 99.3957 38.4459 89.5386C41.6001 92.0077 45.7681 92.9976 50.027 91.4969C56.293 100.68 62.8274 109.784 66.5848 119.913C66.6247 120.032 66.8435 120.032 66.8833 119.893C68.3753 115.069 69.4694 110.405 70.3447 105.82C70.3447 105.701 70.484 105.661 70.5635 105.701C75.7159 108.093 80.6296 110.564 85.1453 113.175C85.2647 113.275 85.4239 113.136 85.3642 112.976C81.7362 103.288 75.581 94.5189 69.5495 85.6869C73.1053 83.3627 75.1881 79.4323 75.1381 75.2676C84.5301 75.4558 90.6924 64.98 85.7977 56.7772C94.0668 52.0824 94.0713 40.0875 85.788 35.404ZM82.3922 53.9567L81.3781 54.1815C81.2609 54.7662 80.2151 56.0829 81.4111 57.5159C86.6962 63.3812 81.3781 72.7545 73.5878 71.1058C71.6946 70.6351 70.9409 72.5836 70.5475 72.9366L71.0215 73.8933C72.4646 81.7358 63.1768 86.8083 57.3468 81.5238C55.9739 80.3723 54.5044 81.5036 54.0422 81.6036L53.8363 82.5896C51.2069 90.1427 40.6578 89.9467 38.1509 82.5828L37.9197 81.5666L36.8357 81.1618C36.0936 80.8853 35.2679 81.0362 34.6093 81.59C31.3982 84.4774 26.1007 84.5572 22.8715 80.8172C21.193 78.8706 20.5014 76.2428 21.0085 73.7687C21.2066 73.0796 21.0512 72.3322 20.5713 71.7803L19.5145 70.733L18.3664 71.1165C10.5961 72.6889 5.29705 63.3986 10.648 57.4556C11.1609 56.8385 11.3085 55.9995 11.0346 55.2657L10.512 54.087L9.53483 53.9294C6.20502 52.7624 3.97868 49.6294 3.97868 46.0838C3.97868 42.5021 6.26719 39.3389 9.69023 38.209C11.3862 37.6341 11.1542 35.847 11.293 35.4517L10.5994 34.6789C5.25665 28.7071 10.7696 19.4281 18.4149 21.0831C20.3086 21.5517 21.0745 19.5759 21.4572 19.2281L20.9832 18.2723C19.57 10.6254 28.7105 5.31621 34.6093 10.6223L34.8327 10.7946C35.468 11.2219 36.2567 11.2988 36.9503 10.9961L38.0382 10.4413L38.1839 9.53815C39.3709 6.21051 42.489 3.98655 45.9917 3.98655C49.5468 3.98655 52.6998 6.26403 53.8557 9.65882L54.0791 10.601C54.5992 10.736 55.8159 11.7354 57.1739 10.817L57.4012 10.6399C60.0685 8.22517 63.9345 7.81446 67.0273 9.61794C70.0637 11.3893 71.6859 14.9895 70.9982 18.4028C70.512 20.0889 72.1206 20.938 72.496 21.4608L73.648 21.0705C81.3619 19.4654 86.6469 28.8178 81.481 34.6001C80.215 35.8686 81.2141 37.3932 81.2712 37.8635L82.3319 38.2139C89.8841 40.7075 89.9146 51.4073 82.3922 53.9567Z" fill="url(#paint0_linear_220_551)"/>
<path d="M45.99 17C30.5328 17 18 29.5373 18 45C18 60.4626 30.5328 73 45.99 73C61.4473 73 74 60.4626 74 45C74 29.5373 61.4473 17 45.99 17ZM64.0135 40.9203L55.2007 49.6169C55.1609 49.6567 55.1609 49.6965 55.1609 49.7363L57.3293 61.9352C57.3492 62.0548 57.2498 62.1144 57.1502 62.0746L46.1492 56.3631C46.1094 56.3432 46.0696 56.3432 46.0299 56.3631L35.0885 62.2139C35.0088 62.2537 34.8895 62.1741 34.9094 62.0745L36.9386 49.8358C36.9386 49.796 36.9186 49.7561 36.8987 49.7363L27.9666 41.1393C27.907 41.0596 27.9268 40.9402 28.0462 40.9203L40.3005 39.0696C40.3404 39.0496 40.3602 39.0298 40.3801 38.99L45.8111 27.8458C45.8508 27.7462 45.99 27.7462 46.0299 27.8458L51.5801 38.9302C51.6 38.9701 51.6398 38.99 51.6795 38.99L63.9539 40.7014C64.0533 40.7213 64.093 40.8407 64.0135 40.9203Z" fill="url(#paint1_linear_220_551)"/>
<defs>
<linearGradient id="paint0_linear_220_551" x1="0" y1="60" x2="92" y2="60" gradientUnits="userSpaceOnUse">
<stop stop-color="#E0C3FC"/>
<stop offset="1" stop-color="#8EC5FC"/>
</linearGradient>
<linearGradient id="paint1_linear_220_551" x1="18" y1="45" x2="74" y2="45" gradientUnits="userSpaceOnUse">
<stop stop-color="#E0C3FC"/>
<stop offset="1" stop-color="#8EC5FC"/>
</linearGradient>
</defs>
</svg>
