<svg width="30" height="50" viewBox="0 0 30 50" fill="none" xmlns="http://www.w3.org/2000/svg">
<path opacity="0.5" d="M3.48722 0.499596L0.957386 3.00443C0.619555 3.3382 0.451172 3.72268 0.451172 4.15735C0.451172 4.59097 0.619555 4.97527 0.957386 5.30904L20.8449 24.9997L0.957918 44.6896C0.620087 45.0235 0.451703 45.4078 0.451703 45.8419C0.451703 46.2763 0.620087 46.6606 0.957918 46.9943L3.48792 49.4988C3.82505 49.8333 4.21321 50 4.6519 50C5.09023 50 5.4784 49.8328 5.81552 49.4988L29.3974 26.1521C29.7347 25.8184 29.9032 25.4339 29.9032 24.9997C29.9032 24.5656 29.7347 24.1818 29.3974 23.8482L5.81552 0.499596C5.47822 0.165828 5.09005 0 4.6519 0C4.21321 0 3.82505 0.165828 3.48722 0.499596Z" fill="url(#paint0_linear_250_707)"/>
<defs>
<linearGradient id="paint0_linear_250_707" x1="-8.80953" y1="45.1159" x2="49.7347" y2="23.2242" gradientUnits="userSpaceOnUse">
<stop stop-color="#E6E9F0"/>
<stop offset="0.510417" stop-color="#FCFDFF"/>
<stop offset="1" stop-color="#E6E9F0"/>
</linearGradient>
</defs>
</svg>
